ffmpeg started on 2026-01-16 at 16:38:48
Report written to "D:\Convert\FFMetrics\reports\ssim_report-6.txt"
Log level: 32
Command line:
ffmpeg -hide_banner -nostdin -r 24000/1001 -i "F:\\Convert\\files\\[DC] Make Heroine ga Oosugiru - 07_Telegram_HEVC(HB-4).mkv" -r 24000/1001 -i "F:\\Convert\\files\\[DC] Make Heroine ga Oosugiru - 07_Telegram.mp4" -lavfi "[0:v]settb=AVTB,setpts=PTS-STARTPTS,format=pix_fmts=yuv420p10le,fps=24000/1001,scale=1920:1080:flags=lanczos:param0=3:out_range=limited:out_color_matrix=bt709:out_chroma_loc=left,setsar=1/1,setdar=(1920/1080)*(1/1),colorspace=format=yuv420p10:range=tv:primaries=bt709:trc=bt709:space=bt709:fast=0[main];[1:v]settb=AVTB,setpts=PTS-STARTPTS,format=pix_fmts=yuv420p,fps=24000/1001,scale=1920:1080:flags=lanczos:param0=3:out_range=limited:out_color_matrix=bt709:out_chroma_loc=left,setsar=1.000,setdar=1.778,colorspace=format=yuv420p:range=tv:primaries=bt709:trc=bt709:space=bt709:fast=0[ref];[main][ref]ssim=eof_action=endall:stats_file='D\\:/Convert/FFMetrics/logs/ssim_logfile-6.txt'" -f null -
Input #0, matroska,webm, from 'F:\Convert\files\[DC] Make Heroine ga Oosugiru - 07_Telegram_HEVC(HB-4).mkv':
  Metadata:
    creation_time   : 2026-01-16T07:32:17.000000Z
    ENCODER         : Lavf61.7.100
  Duration: 00:24:06.81, start: -0.021000, bitrate: 999 kb/s
  Stream #0:0: Video: hevc (Main 10), yuv420p10le(tv, bt709), 1920x1080 [SAR 1:1 DAR 16:9], 23.98 fps, 23.98 tbr, 1k tbn (default)
      Metadata:
        BPS             : 802300
        DURATION        : 00:24:06.569708333
        NUMBER_OF_FRAMES: 34683
        NUMBER_OF_BYTES : 145072882
        _STATISTICS_WRITING_APP: mkvpropedit v94.0 ('Initiate') 64-bit
        _STATISTICS_WRITING_DATE_UTC: 2026-01-16 13:37:12
        _STATISTICS_TAGS: BPS DURATION NUMBER_OF_FRAMES NUMBER_OF_BYTES
  Stream #0:1: Audio: aac (LC), 48000 Hz, stereo, fltp (default)
      Metadata:
        title           : Stereo
        BPS             : 193190
        DURATION        : 00:24:06.784000000
        NUMBER_OF_FRAMES: 67819
        NUMBER_OF_BYTES : 34938166
        _STATISTICS_WRITING_APP: mkvpropedit v94.0 ('Initiate') 64-bit
        _STATISTICS_WRITING_DATE_UTC: 2026-01-16 13:37:12
        _STATISTICS_TAGS: BPS DURATION NUMBER_OF_FRAMES NUMBER_OF_BYTES
Input #1, mov,mp4,m4a,3gp,3g2,mj2, from 'F:\Convert\files\[DC] Make Heroine ga Oosugiru - 07_Telegram.mp4':
  Metadata:
    major_brand     : isom
    minor_version   : 512
    compatible_brands: isomiso2avc1mp41
    encoder         : Lavf60.16.100
  Duration: 00:24:06.74, start: 0.000000, bitrate: 3764 kb/s
  Stream #1:0[0x1](und): Video: h264 (High) (avc1 / 0x31637661), yuv420p(tv, bt709, progressive), 1920x1080 [SAR 1:1 DAR 16:9], 3616 kb/s, 23.98 fps, 23.98 tbr, 24k tbn (default)
      Metadata:
        handler_name    : VideoHandler
        vendor_id       : [0][0][0][0]
        encoder         : Lavc60.31.102 h264_qsv
  Stream #1:1[0x2](und): Audio: aac (HE-AACv2) (mp4a / 0x6134706D), 48000 Hz, stereo, fltp, 144 kb/s (default)
      Metadata:
        handler_name    : SoundHandler
        vendor_id       : [0][0][0][0]
Stream mapping:
  Stream #0:0 (hevc) -> settb:default
  Stream #1:0 (h264) -> settb:default
  ssim:default -> Stream #0:0 (wrapped_avframe)
  Stream #0:1 -> #0:1 (aac (native) -> pcm_s16le (native))
Output #0, null, to 'pipe:':
  Metadata:
    encoder         : Lavf61.7.100
  Stream #0:0: Video: wrapped_avframe, yuv420p10le(tv, bt709, progressive), 1920x1080 [SAR 1:1 DAR 16:9], q=2-31, 200 kb/s, 23.98 fps, 23.98 tbn
      Metadata:
        encoder         : Lavc61.19.100 wrapped_avframe
  Stream #0:1: Audio: pcm_s16le, 48000 Hz, stereo, s16, 1536 kb/s (default)
      Metadata:
        title           : Stereo
        BPS             : 193190
        DURATION        : 00:24:06.784000000
        NUMBER_OF_FRAMES: 67819
        NUMBER_OF_BYTES : 34938166
        _STATISTICS_WRITING_APP: mkvpropedit v94.0 ('Initiate') 64-bit
        _STATISTICS_WRITING_DATE_UTC: 2026-01-16 13:37:12
        _STATISTICS_TAGS: BPS DURATION NUMBER_OF_FRAMES NUMBER_OF_BYTES
        encoder         : Lavc61.19.100 pcm_s16le
frame=  122 fps=0.0 q=-0.0 size=N/A time=00:00:05.08 bitrate=N/A speed=9.96x    frame=  314 fps=307 q=-0.0 size=N/A time=00:00:13.09 bitrate=N/A speed=12.8x    frame=  515 fps=332 q=-0.0 size=N/A time=00:00:21.47 bitrate=N/A speed=13.9x    frame=  707 fps=343 q=-0.0 size=N/A time=00:00:29.48 bitrate=N/A speed=14.3x    frame=  890 fps=346 q=-0.0 size=N/A time=00:00:37.12 bitrate=N/A speed=14.4x    frame= 1018 fps=330 q=-0.0 size=N/A time=00:00:42.45 bitrate=N/A speed=13.8x    frame= 1186 fps=328 q=-0.0 size=N/A time=00:00:49.46 bitrate=N/A speed=13.7x    frame= 1339 fps=325 q=-0.0 size=N/A time=00:00:55.84 bitrate=N/A speed=13.6x    frame= 1508 fps=326 q=-0.0 size=N/A time=00:01:02.89 bitrate=N/A speed=13.6x    frame= 1660 fps=322 q=-0.0 size=N/A time=00:01:09.23 bitrate=N/A speed=13.4x    frame= 1828 fps=322 q=-0.0 size=N/A time=00:01:16.24 bitrate=N/A speed=13.4x    frame= 1989 fps=322 q=-0.0 size=N/A time=00:01:22.95 bitrate=N/A speed=13.4x    frame= 2101 fps=313 q=-0.0 size=N/A time=00:01:27.62 bitrate=N/A speed=13.1x    frame= 2265 fps=313 q=-0.0 size=N/A time=00:01:34.46 bitrate=N/A speed=13.1x    frame= 2413 fps=311 q=-0.0 size=N/A time=00:01:40.64 bitrate=N/A speed=  13x    frame= 2549 fps=309 q=-0.0 size=N/A time=00:01:46.31 bitrate=N/A speed=12.9x    frame= 2726 fps=310 q=-0.0 size=N/A time=00:01:53.69 bitrate=N/A speed=12.9x    frame= 2906 fps=313 q=-0.0 size=N/A time=00:02:01.20 bitrate=N/A speed=  13x    frame= 3089 fps=315 q=-0.0 size=N/A time=00:02:08.83 bitrate=N/A speed=13.1x    frame= 3291 fps=319 q=-0.0 size=N/A time=00:02:17.26 bitrate=N/A speed=13.3x    frame= 3496 fps=322 q=-0.0 size=N/A time=00:02:25.81 bitrate=N/A speed=13.4x    frame= 3702 fps=326 q=-0.0 size=N/A time=00:02:34.40 bitrate=N/A speed=13.6x    frame= 3898 fps=328 q=-0.0 size=N/A time=00:02:42.57 bitrate=N/A speed=13.7x    frame= 4100 fps=331 q=-0.0 size=N/A time=00:02:51.00 bitrate=N/A speed=13.8x    frame= 4308 fps=334 q=-0.0 size=N/A time=00:02:59.67 bitrate=N/A speed=13.9x    frame= 4499 fps=335 q=-0.0 size=N/A time=00:03:07.64 bitrate=N/A speed=  14x    frame= 4699 fps=337 q=-0.0 size=N/A time=00:03:15.98 bitrate=N/A speed=14.1x    frame= 4891 fps=339 q=-0.0 size=N/A time=00:03:23.99 bitrate=N/A speed=14.1x    frame= 5095 fps=340 q=-0.0 size=N/A time=00:03:32.50 bitrate=N/A speed=14.2x    frame= 5286 fps=341 q=-0.0 size=N/A time=00:03:40.47 bitrate=N/A speed=14.2x    frame= 5482 fps=343 q=-0.0 size=N/A time=00:03:48.64 bitrate=N/A speed=14.3x    frame= 5682 fps=344 q=-0.0 size=N/A time=00:03:56.98 bitrate=N/A speed=14.4x    frame= 5880 fps=345 q=-0.0 size=N/A time=00:04:05.24 bitrate=N/A speed=14.4x    frame= 6082 fps=347 q=-0.0 size=N/A time=00:04:13.67 bitrate=N/A speed=14.5x    frame= 6283 fps=348 q=-0.0 size=N/A time=00:04:22.05 bitrate=N/A speed=14.5x    frame= 6487 fps=349 q=-0.0 size=N/A time=00:04:30.56 bitrate=N/A speed=14.6x    frame= 6687 fps=350 q=-0.0 size=N/A time=00:04:38.90 bitrate=N/A speed=14.6x    frame= 6892 fps=351 q=-0.0 size=N/A time=00:04:47.45 bitrate=N/A speed=14.7x    frame= 7084 fps=352 q=-0.0 size=N/A time=00:04:55.46 bitrate=N/A speed=14.7x    frame= 7277 fps=353 q=-0.0 size=N/A time=00:05:03.51 bitrate=N/A speed=14.7x    frame= 7480 fps=354 q=-0.0 size=N/A time=00:05:11.97 bitrate=N/A speed=14.7x    frame= 7663 fps=354 q=-0.0 size=N/A time=00:05:19.61 bitrate=N/A speed=14.7x    frame= 7854 fps=354 q=-0.0 size=N/A time=00:05:27.57 bitrate=N/A speed=14.8x    frame= 8045 fps=354 q=-0.0 size=N/A time=00:05:35.54 bitrate=N/A speed=14.8x    frame= 8249 fps=355 q=-0.0 size=N/A time=00:05:44.05 bitrate=N/A speed=14.8x    frame= 8447 fps=356 q=-0.0 size=N/A time=00:05:52.31 bitrate=N/A speed=14.8x    frame= 8640 fps=356 q=-0.0 size=N/A time=00:06:00.36 bitrate=N/A speed=14.9x    frame= 8849 fps=357 q=-0.0 size=N/A time=00:06:09.07 bitrate=N/A speed=14.9x    frame= 9045 fps=358 q=-0.0 size=N/A time=00:06:17.21 bitrate=N/A speed=14.9x    frame= 9246 fps=358 q=-0.0 size=N/A time=00:06:25.63 bitrate=N/A speed=  15x    frame= 9442 fps=359 q=-0.0 size=N/A time=00:06:33.81 bitrate=N/A speed=  15x    frame= 9640 fps=359 q=-0.0 size=N/A time=00:06:42.06 bitrate=N/A speed=  15x    frame= 9845 fps=360 q=-0.0 size=N/A time=00:06:50.61 bitrate=N/A speed=  15x    frame=10045 fps=361 q=-0.0 size=N/A time=00:06:58.96 bitrate=N/A speed=  15x    frame=10235 fps=361 q=-0.0 size=N/A time=00:07:06.88 bitrate=N/A speed=  15x    frame=10430 fps=361 q=-0.0 size=N/A time=00:07:15.01 bitrate=N/A speed=15.1x    frame=10630 fps=361 q=-0.0 size=N/A time=00:07:23.35 bitrate=N/A speed=15.1x    frame=10825 fps=362 q=-0.0 size=N/A time=00:07:31.49 bitrate=N/A speed=15.1x    frame=11019 fps=362 q=-0.0 size=N/A time=00:07:39.58 bitrate=N/A speed=15.1x    frame=11210 fps=362 q=-0.0 size=N/A time=00:07:47.55 bitrate=N/A speed=15.1x    frame=11403 fps=362 q=-0.0 size=N/A time=00:07:55.60 bitrate=N/A speed=15.1x    frame=11600 fps=363 q=-0.0 size=N/A time=00:08:03.81 bitrate=N/A speed=15.1x    frame=11788 fps=363 q=-0.0 size=N/A time=00:08:11.65 bitrate=N/A speed=15.1x    frame=11987 fps=363 q=-0.0 size=N/A time=00:08:19.95 bitrate=N/A speed=15.1x    frame=12185 fps=363 q=-0.0 size=N/A time=00:08:28.21 bitrate=N/A speed=15.2x    frame=12380 fps=364 q=-0.0 size=N/A time=00:08:36.34 bitrate=N/A speed=15.2x    frame=12573 fps=364 q=-0.0 size=N/A time=00:08:44.39 bitrate=N/A speed=15.2x    frame=12770 fps=364 q=-0.0 size=N/A time=00:08:52.61 bitrate=N/A speed=15.2x    frame=12958 fps=364 q=-0.0 size=N/A time=00:09:00.45 bitrate=N/A speed=15.2x    frame=13151 fps=364 q=-0.0 size=N/A time=00:09:08.50 bitrate=N/A speed=15.2x    frame=13332 fps=364 q=-0.0 size=N/A time=00:09:16.05 bitrate=N/A speed=15.2x    frame=13516 fps=364 q=-0.0 size=N/A time=00:09:23.72 bitrate=N/A speed=15.2x    frame=13700 fps=364 q=-0.0 size=N/A time=00:09:31.40 bitrate=N/A speed=15.2x    frame=13884 fps=364 q=-0.0 size=N/A time=00:09:39.07 bitrate=N/A speed=15.2x    frame=14053 fps=363 q=-0.0 size=N/A time=00:09:46.12 bitrate=N/A speed=15.2x    frame=14222 fps=363 q=-0.0 size=N/A time=00:09:53.17 bitrate=N/A speed=15.1x    frame=14414 fps=363 q=-0.0 size=N/A time=00:10:01.18 bitrate=N/A speed=15.1x    frame=14604 fps=363 q=-0.0 size=N/A time=00:10:09.10 bitrate=N/A speed=15.1x    frame=14809 fps=363 q=-0.0 size=N/A time=00:10:17.65 bitrate=N/A speed=15.2x    frame=14999 fps=363 q=-0.0 size=N/A time=00:10:25.58 bitrate=N/A speed=15.2x    frame=15154 fps=363 q=-0.0 size=N/A time=00:10:32.04 bitrate=N/A speed=15.1x    frame=15320 fps=362 q=-0.0 size=N/A time=00:10:38.97 bitrate=N/A speed=15.1x    frame=15500 fps=362 q=-0.0 size=N/A time=00:10:46.47 bitrate=N/A speed=15.1x    frame=15689 fps=362 q=-0.0 size=N/A time=00:10:54.36 bitrate=N/A speed=15.1x    frame=15884 fps=362 q=-0.0 size=N/A time=00:11:02.49 bitrate=N/A speed=15.1x    frame=16076 fps=362 q=-0.0 size=N/A time=00:11:10.50 bitrate=N/A speed=15.1x    frame=16285 fps=363 q=-0.0 size=N/A time=00:11:19.22 bitrate=N/A speed=15.1x    frame=16474 fps=363 q=-0.0 size=N/A time=00:11:27.10 bitrate=N/A speed=15.1x    frame=16674 fps=363 q=-0.0 size=N/A time=00:11:35.44 bitrate=N/A speed=15.2x    frame=16877 fps=364 q=-0.0 size=N/A time=00:11:43.91 bitrate=N/A speed=15.2x    frame=17083 fps=364 q=-0.0 size=N/A time=00:11:52.50 bitrate=N/A speed=15.2x    frame=17284 fps=364 q=-0.0 size=N/A time=00:12:00.88 bitrate=N/A speed=15.2x    frame=17479 fps=364 q=-0.0 size=N/A time=00:12:09.01 bitrate=N/A speed=15.2x    frame=17663 fps=364 q=-0.0 size=N/A time=00:12:16.69 bitrate=N/A speed=15.2x    frame=17811 fps=363 q=-0.0 size=N/A time=00:12:22.86 bitrate=N/A speed=15.2x    frame=17964 fps=363 q=-0.0 size=N/A time=00:12:29.24 bitrate=N/A speed=15.1x    frame=18128 fps=362 q=-0.0 size=N/A time=00:12:36.08 bitrate=N/A speed=15.1x    frame=18288 fps=362 q=-0.0 size=N/A time=00:12:42.76 bitrate=N/A speed=15.1x    frame=18433 fps=361 q=-0.0 size=N/A time=00:12:48.80 bitrate=N/A speed=15.1x    frame=18603 fps=361 q=-0.0 size=N/A time=00:12:55.90 bitrate=N/A speed=  15x    frame=18756 fps=360 q=-0.0 size=N/A time=00:13:02.28 bitrate=N/A speed=  15x    frame=18917 fps=360 q=-0.0 size=N/A time=00:13:08.99 bitrate=N/A speed=  15x    frame=19074 fps=359 q=-0.0 size=N/A time=00:13:15.54 bitrate=N/A speed=  15x    frame=19246 fps=359 q=-0.0 size=N/A time=00:13:22.71 bitrate=N/A speed=  15x    frame=19402 fps=358 q=-0.0 size=N/A time=00:13:29.22 bitrate=N/A speed=14.9x    frame=19573 fps=358 q=-0.0 size=N/A time=00:13:36.35 bitrate=N/A speed=14.9x    frame=19732 fps=357 q=-0.0 size=N/A time=00:13:42.98 bitrate=N/A speed=14.9x    frame=19906 fps=357 q=-0.0 size=N/A time=00:13:50.24 bitrate=N/A speed=14.9x    frame=20065 fps=357 q=-0.0 size=N/A time=00:13:56.87 bitrate=N/A speed=14.9x    frame=20230 fps=357 q=-0.0 size=N/A time=00:14:03.75 bitrate=N/A speed=14.9x    frame=20386 fps=356 q=-0.0 size=N/A time=00:14:10.26 bitrate=N/A speed=14.8x    frame=20546 fps=356 q=-0.0 size=N/A time=00:14:16.93 bitrate=N/A speed=14.8x    frame=20699 fps=355 q=-0.0 size=N/A time=00:14:23.32 bitrate=N/A speed=14.8x    frame=20871 fps=355 q=-0.0 size=N/A time=00:14:30.49 bitrate=N/A speed=14.8x    frame=21038 fps=355 q=-0.0 size=N/A time=00:14:37.45 bitrate=N/A speed=14.8x    frame=21212 fps=354 q=-0.0 size=N/A time=00:14:44.71 bitrate=N/A speed=14.8x    frame=21376 fps=354 q=-0.0 size=N/A time=00:14:51.55 bitrate=N/A speed=14.8x    frame=21569 fps=354 q=-0.0 size=N/A time=00:14:59.60 bitrate=N/A speed=14.8x    frame=21769 fps=355 q=-0.0 size=N/A time=00:15:07.94 bitrate=N/A speed=14.8x    frame=21970 fps=355 q=-0.0 size=N/A time=00:15:16.33 bitrate=N/A speed=14.8x    frame=22169 fps=355 q=-0.0 size=N/A time=00:15:24.63 bitrate=N/A speed=14.8x    frame=22361 fps=355 q=-0.0 size=N/A time=00:15:32.64 bitrate=N/A speed=14.8x    frame=22557 fps=355 q=-0.0 size=N/A time=00:15:40.81 bitrate=N/A speed=14.8x    frame=22747 fps=355 q=-0.0 size=N/A time=00:15:48.73 bitrate=N/A speed=14.8x    frame=22938 fps=356 q=-0.0 size=N/A time=00:15:56.70 bitrate=N/A speed=14.8x    frame=23142 fps=356 q=-0.0 size=N/A time=00:16:05.21 bitrate=N/A speed=14.8x    frame=23345 fps=356 q=-0.0 size=N/A time=00:16:13.68 bitrate=N/A speed=14.9x    frame=23550 fps=356 q=-0.0 size=N/A time=00:16:22.23 bitrate=N/A speed=14.9x    frame=23754 fps=357 q=-0.0 size=N/A time=00:16:30.73 bitrate=N/A speed=14.9x    frame=23946 fps=357 q=-0.0 size=N/A time=00:16:38.74 bitrate=N/A speed=14.9x    frame=24153 fps=357 q=-0.0 size=N/A time=00:16:47.38 bitrate=N/A speed=14.9x    frame=24347 fps=357 q=-0.0 size=N/A time=00:16:55.47 bitrate=N/A speed=14.9x    frame=24549 fps=358 q=-0.0 size=N/A time=00:17:03.89 bitrate=N/A speed=14.9x    frame=24749 fps=358 q=-0.0 size=N/A time=00:17:12.23 bitrate=N/A speed=14.9x    frame=24956 fps=358 q=-0.0 size=N/A time=00:17:20.87 bitrate=N/A speed=14.9x    frame=25152 fps=358 q=-0.0 size=N/A time=00:17:29.04 bitrate=N/A speed=14.9x    frame=25350 fps=359 q=-0.0 size=N/A time=00:17:37.30 bitrate=N/A speed=  15x    frame=25554 fps=359 q=-0.0 size=N/A time=00:17:45.81 bitrate=N/A speed=  15x    frame=25749 fps=359 q=-0.0 size=N/A time=00:17:53.94 bitrate=N/A speed=  15x    frame=25953 fps=359 q=-0.0 size=N/A time=00:18:02.45 bitrate=N/A speed=  15x    frame=26145 fps=359 q=-0.0 size=N/A time=00:18:10.46 bitrate=N/A speed=  15x    frame=26349 fps=360 q=-0.0 size=N/A time=00:18:18.97 bitrate=N/A speed=  15x    frame=26560 fps=360 q=-0.0 size=N/A time=00:18:27.77 bitrate=N/A speed=  15x    frame=26759 fps=360 q=-0.0 size=N/A time=00:18:36.07 bitrate=N/A speed=  15x    frame=26952 fps=360 q=-0.0 size=N/A time=00:18:44.12 bitrate=N/A speed=  15x    frame=27132 fps=360 q=-0.0 size=N/A time=00:18:51.63 bitrate=N/A speed=  15x    frame=27330 fps=360 q=-0.0 size=N/A time=00:18:59.88 bitrate=N/A speed=  15x    frame=27519 fps=360 q=-0.0 size=N/A time=00:19:07.77 bitrate=N/A speed=  15x    frame=27712 fps=360 q=-0.0 size=N/A time=00:19:15.82 bitrate=N/A speed=  15x    frame=27905 fps=361 q=-0.0 size=N/A time=00:19:23.87 bitrate=N/A speed=  15x    frame=28111 fps=361 q=-0.0 size=N/A time=00:19:32.46 bitrate=N/A speed=  15x    frame=28303 fps=361 q=-0.0 size=N/A time=00:19:40.47 bitrate=N/A speed=  15x    frame=28498 fps=361 q=-0.0 size=N/A time=00:19:48.60 bitrate=N/A speed=15.1x    frame=28690 fps=361 q=-0.0 size=N/A time=00:19:56.61 bitrate=N/A speed=15.1x    frame=28871 fps=361 q=-0.0 size=N/A time=00:20:04.16 bitrate=N/A speed=15.1x    frame=29042 fps=361 q=-0.0 size=N/A time=00:20:11.29 bitrate=N/A speed=  15x    frame=29221 fps=361 q=-0.0 size=N/A time=00:20:18.75 bitrate=N/A speed=  15x    frame=29402 fps=361 q=-0.0 size=N/A time=00:20:26.30 bitrate=N/A speed=  15x    frame=29584 fps=361 q=-0.0 size=N/A time=00:20:33.89 bitrate=N/A speed=  15x    frame=29764 fps=360 q=-0.0 size=N/A time=00:20:41.40 bitrate=N/A speed=  15x    frame=29943 fps=360 q=-0.0 size=N/A time=00:20:48.87 bitrate=N/A speed=  15x    frame=30113 fps=360 q=-0.0 size=N/A time=00:20:55.96 bitrate=N/A speed=  15x    frame=30308 fps=360 q=-0.0 size=N/A time=00:21:04.09 bitrate=N/A speed=  15x    frame=30507 fps=360 q=-0.0 size=N/A time=00:21:12.39 bitrate=N/A speed=  15x    frame=30701 fps=361 q=-0.0 size=N/A time=00:21:20.48 bitrate=N/A speed=  15x    frame=30904 fps=361 q=-0.0 size=N/A time=00:21:28.95 bitrate=N/A speed=  15x    frame=31100 fps=361 q=-0.0 size=N/A time=00:21:37.12 bitrate=N/A speed=15.1x    frame=31298 fps=361 q=-0.0 size=N/A time=00:21:45.38 bitrate=N/A speed=15.1x    frame=31484 fps=361 q=-0.0 size=N/A time=00:21:53.14 bitrate=N/A speed=15.1x    frame=31679 fps=361 q=-0.0 size=N/A time=00:22:01.27 bitrate=N/A speed=15.1x    frame=31872 fps=361 q=-0.0 size=N/A time=00:22:09.32 bitrate=N/A speed=15.1x    frame=32056 fps=361 q=-0.0 size=N/A time=00:22:17.00 bitrate=N/A speed=15.1x    frame=32256 fps=361 q=-0.0 size=N/A time=00:22:25.34 bitrate=N/A speed=15.1x    frame=32448 fps=361 q=-0.0 size=N/A time=00:22:33.35 bitrate=N/A speed=15.1x    frame=32643 fps=362 q=-0.0 size=N/A time=00:22:41.48 bitrate=N/A speed=15.1x    frame=32801 fps=361 q=-0.0 size=N/A time=00:22:48.07 bitrate=N/A speed=15.1x    frame=32977 fps=361 q=-0.0 size=N/A time=00:22:55.41 bitrate=N/A speed=15.1x    frame=33160 fps=361 q=-0.0 size=N/A time=00:23:03.04 bitrate=N/A speed=15.1x    frame=33353 fps=361 q=-0.0 size=N/A time=00:23:11.09 bitrate=N/A speed=15.1x    frame=33518 fps=361 q=-0.0 size=N/A time=00:23:17.97 bitrate=N/A speed=15.1x    frame=33671 fps=361 q=-0.0 size=N/A time=00:23:24.36 bitrate=N/A speed=  15x    frame=33813 fps=360 q=-0.0 size=N/A time=00:23:30.28 bitrate=N/A speed=  15x    frame=33951 fps=360 q=-0.0 size=N/A time=00:23:36.03 bitrate=N/A speed=  15x    frame=34124 fps=359 q=-0.0 size=N/A time=00:23:43.25 bitrate=N/A speed=  15x    frame=34275 fps=359 q=-0.0 size=N/A time=00:23:49.55 bitrate=N/A speed=  15x    frame=34412 fps=359 q=-0.0 size=N/A time=00:23:55.26 bitrate=N/A speed=  15x    frame=34590 fps=359 q=-0.0 size=N/A time=00:24:02.69 bitrate=N/A speed=  15x    [Parsed_ssim_16 @ 0000018df90d6e00] SSIM Y:0.994360 (22.487331) U:0.994073 (22.271529) V:0.993677 (21.990476) All:0.994198 (22.364477)
[out#0/null @ 0000018debed1d00] video:14903KiB audio:271276KiB subtitle:0KiB other streams:0KiB global headers:0KiB muxing overhead: unknown
frame=34683 fps=359 q=-0.0 Lsize=N/A time=00:24:06.57 bitrate=N/A speed=  15x    
